<?xml version="1.0" encoding="UTF-8" standalone="no"?>
<!DOCTYPE svg PUBLIC "-//W3C//DTD SVG 1.1//EN"
 "http://www.w3.org/Graphics/SVG/1.1/DTD/svg11.dtd">
<!-- Generated by graphviz version 2.40.1 (20161225.0304)
 -->
<!-- Title: G Pages: 1 -->
<svg width="535pt" height="268pt"
 viewBox="0.00 0.00 535.18 267.98" xmlns="http://www.w3.org/2000/svg" xmlns:xlink="http://www.w3.org/1999/xlink">
<g id="graph0" class="graph" transform="scale(1 1) rotate(0) translate(7.992 259.992)">
<title>G</title>
<polygon fill="#000000" stroke="transparent" points="-7.992,7.992 -7.992,-259.992 527.1865,-259.992 527.1865,7.992 -7.992,7.992"/>
<!-- code.js -->
<g id="node1" class="node">
<title>code.js</title>
<ellipse fill="none" stroke="#cfffac" cx="196.5708" cy="-18" rx="40.7478" ry="18"/>
<text text-anchor="middle" x="196.5708" y="-14.8493" font-family="Arial" font-size="14.00" fill="#cfffac">code.js</text>
</g>
<!-- context.js -->
<g id="node2" class="node">
<title>context.js</title>
<ellipse fill="none" stroke="#c6c5fe" cx="50.5708" cy="-162" rx="50.6417" ry="18"/>
<text text-anchor="middle" x="50.5708" y="-158.8493" font-family="Arial" font-size="14.00" fill="#c6c5fe">context.js</text>
</g>
<!-- error.js -->
<g id="node3" class="node">
<title>error.js</title>
<ellipse fill="none" stroke="#cfffac" cx="69.5708" cy="-90" rx="39.6311" ry="18"/>
<text text-anchor="middle" x="69.5708" y="-86.8493" font-family="Arial" font-size="14.00" fill="#cfffac">error.js</text>
</g>
<!-- context.js&#45;&gt;error.js -->
<g id="edge1" class="edge">
<title>context.js&#45;&gt;error.js</title>
<path fill="none" stroke="#757575" d="M55.3653,-143.8314C57.4513,-135.9266 59.9422,-126.4872 62.2514,-117.7365"/>
<polygon fill="#757575" stroke="#757575" points="65.6762,-118.4755 64.8436,-107.9134 58.9079,-116.6894 65.6762,-118.4755"/>
</g>
<!-- index.js -->
<g id="node4" class="node">
<title>index.js</title>
<ellipse fill="none" stroke="#c6c5fe" cx="206.5708" cy="-234" rx="42.9353" ry="18"/>
<text text-anchor="middle" x="206.5708" y="-230.8493" font-family="Arial" font-size="14.00" fill="#c6c5fe">index.js</text>
</g>
<!-- index.js&#45;&gt;context.js -->
<g id="edge2" class="edge">
<title>index.js&#45;&gt;context.js</title>
<path fill="none" stroke="#757575" d="M177.594,-220.6261C153.1597,-209.3487 117.9319,-193.0898 90.77,-180.5535"/>
<polygon fill="#757575" stroke="#757575" points="92.0761,-177.3015 81.5298,-176.2888 89.1426,-183.6573 92.0761,-177.3015"/>
</g>
<!-- index.js&#45;&gt;error.js -->
<g id="edge3" class="edge">
<title>index.js&#45;&gt;error.js</title>
<path fill="none" stroke="#757575" d="M190.587,-217.1995C166.354,-191.7284 120.2068,-143.2232 92.4303,-114.0276"/>
<polygon fill="#757575" stroke="#757575" points="94.8813,-111.526 85.4527,-106.6934 89.8098,-116.3509 94.8813,-111.526"/>
</g>
<!-- metadata.js -->
<g id="node5" class="node">
<title>metadata.js</title>
<ellipse fill="none" stroke="#c6c5fe" cx="196.5708" cy="-90" rx="59.4561" ry="18"/>
<text text-anchor="middle" x="196.5708" y="-86.8493" font-family="Arial" font-size="14.00" fill="#c6c5fe">metadata.js</text>
</g>
<!-- index.js&#45;&gt;metadata.js -->
<g id="edge4" class="edge">
<title>index.js&#45;&gt;metadata.js</title>
<path fill="none" stroke="#757575" d="M198.0557,-215.9594C193.6728,-205.6742 188.7931,-192.3991 186.5708,-180 182.8611,-159.3028 185.7574,-135.6657 189.3696,-117.8102"/>
<polygon fill="#757575" stroke="#757575" points="192.7901,-118.5514 191.5345,-108.0312 185.9556,-117.0382 192.7901,-118.5514"/>
</g>
<!-- module.js -->
<g id="node6" class="node">
<title>module.js</title>
<ellipse fill="none" stroke="#c6c5fe" cx="246.5708" cy="-162" rx="51.1907" ry="18"/>
<text text-anchor="middle" x="246.5708" y="-158.8493" font-family="Arial" font-size="14.00" fill="#c6c5fe">module.js</text>
</g>
<!-- index.js&#45;&gt;module.js -->
<g id="edge5" class="edge">
<title>index.js&#45;&gt;module.js</title>
<path fill="none" stroke="#757575" d="M216.4584,-216.2022C221.0739,-207.8944 226.6643,-197.8316 231.7693,-188.6427"/>
<polygon fill="#757575" stroke="#757575" points="234.8613,-190.2839 236.6583,-179.8425 228.7422,-186.8844 234.8613,-190.2839"/>
</g>
<!-- route.js -->
<g id="node7" class="node">
<title>route.js</title>
<ellipse fill="none" stroke="#cfffac" cx="320.5708" cy="-90" rx="41.8369" ry="18"/>
<text text-anchor="middle" x="320.5708" y="-86.8493" font-family="Arial" font-size="14.00" fill="#cfffac">route.js</text>
</g>
<!-- index.js&#45;&gt;route.js -->
<g id="edge6" class="edge">
<title>index.js&#45;&gt;route.js</title>
<path fill="none" stroke="#757575" d="M236.8654,-221.2485C262.9502,-209.651 297.7485,-192.4896 306.5708,-180 319.1367,-162.2107 322.2336,-137.5112 322.4132,-118.4867"/>
<polygon fill="#757575" stroke="#757575" points="325.9099,-118.2494 322.2432,-108.3093 318.9108,-118.3664 325.9099,-118.2494"/>
</g>
<!-- util.js -->
<g id="node8" class="node">
<title>util.js</title>
<ellipse fill="none" stroke="#cfffac" cx="385.5708" cy="-162" rx="32.4744" ry="18"/>
<text text-anchor="middle" x="385.5708" y="-158.8493" font-family="Arial" font-size="14.00" fill="#cfffac">util.js</text>
</g>
<!-- index.js&#45;&gt;util.js -->
<g id="edge7" class="edge">
<title>index.js&#45;&gt;util.js</title>
<path fill="none" stroke="#757575" d="M237.7502,-221.4586C268.9768,-208.8982 316.9799,-189.5896 349.7525,-176.4073"/>
<polygon fill="#757575" stroke="#757575" points="351.4275,-179.5062 359.3989,-172.5272 348.8152,-173.0119 351.4275,-179.5062"/>
</g>
<!-- metadata.js&#45;&gt;code.js -->
<g id="edge8" class="edge">
<title>metadata.js&#45;&gt;code.js</title>
<path fill="none" stroke="#757575" d="M196.5708,-71.8314C196.5708,-64.131 196.5708,-54.9743 196.5708,-46.4166"/>
<polygon fill="#757575" stroke="#757575" points="200.0709,-46.4132 196.5708,-36.4133 193.0709,-46.4133 200.0709,-46.4132"/>
</g>
<!-- module.js&#45;&gt;metadata.js -->
<g id="edge9" class="edge">
<title>module.js&#45;&gt;metadata.js</title>
<path fill="none" stroke="#757575" d="M234.2112,-144.2022C228.3217,-135.7214 221.1621,-125.4115 214.6746,-116.0696"/>
<polygon fill="#757575" stroke="#757575" points="217.5402,-114.0599 208.9614,-107.8425 211.7906,-118.0527 217.5402,-114.0599"/>
</g>
<!-- module.js&#45;&gt;route.js -->
<g id="edge10" class="edge">
<title>module.js&#45;&gt;route.js</title>
<path fill="none" stroke="#757575" d="M264.1077,-144.937C273.6688,-135.6344 285.6538,-123.9733 296.1193,-113.7906"/>
<polygon fill="#757575" stroke="#757575" points="298.6884,-116.1743 303.415,-106.6921 293.8069,-111.1572 298.6884,-116.1743"/>
</g>
<!-- mocha&#45;specs.js -->
<g id="node9" class="node">
<title>mocha&#45;specs.js</title>
<ellipse fill="none" stroke="#cfffac" cx="343.5708" cy="-234" rx="76.4511" ry="18"/>
<text text-anchor="middle" x="343.5708" y="-230.8493" font-family="Arial" font-size="14.00" fill="#cfffac">mocha&#45;specs.js</text>
</g>
<!-- specs.js -->
<g id="node10" class="node">
<title>specs.js</title>
<ellipse fill="none" stroke="#c6c5fe" cx="50.5708" cy="-234" rx="44.6126" ry="18"/>
<text text-anchor="middle" x="50.5708" y="-230.8493" font-family="Arial" font-size="14.00" fill="#c6c5fe">specs.js</text>
</g>
<!-- specs.js&#45;&gt;context.js -->
<g id="edge11" class="edge">
<title>specs.js&#45;&gt;context.js</title>
<path fill="none" stroke="#757575" d="M50.5708,-215.8314C50.5708,-208.131 50.5708,-198.9743 50.5708,-190.4166"/>
<polygon fill="#757575" stroke="#757575" points="54.0709,-190.4132 50.5708,-180.4133 47.0709,-190.4133 54.0709,-190.4132"/>
</g>
<!-- table.js -->
<g id="node11" class="node">
<title>table.js</title>
<ellipse fill="none" stroke="#cfffac" cx="478.5708" cy="-234" rx="40.7478" ry="18"/>
<text text-anchor="middle" x="478.5708" y="-230.8493" font-family="Arial" font-size="14.00" fill="#cfffac">table.js</text>
</g>
</g>
</svg>
