<?xml version="1.0" encoding="UTF-8" standalone="no"?>
<!DOCTYPE svg PUBLIC "-//W3C//DTD SVG 1.1//EN"
 "http://www.w3.org/Graphics/SVG/1.1/DTD/svg11.dtd">
<!-- Generated by graphviz version 2.40.1 (20161225.0304)
 -->
<!-- Title: G Pages: 1 -->
<svg width="374pt" height="264pt"
 viewBox="0.00 0.00 373.55 264.00" xmlns="http://www.w3.org/2000/svg" xmlns:xlink="http://www.w3.org/1999/xlink">
<g id="graph0" class="graph" transform="scale(1 1) rotate(0) translate(4 260)">
<title>G</title>
<polygon fill="#ffffff" stroke="transparent" points="-4,4 -4,-260 369.5483,-260 369.5483,4 -4,4"/>
<!-- /code -->
<g id="node1" class="node">
<title>/code</title>
<polygon fill="none" stroke="#000000" points="109.5483,-.5 109.5483,-36.5 163.5483,-36.5 163.5483,-.5 109.5483,-.5"/>
<text text-anchor="middle" x="136.207" y="-14.3" font-family="Times,serif" font-size="14.00" fill="#000000">/code</text>
</g>
<!-- /context -->
<g id="node2" class="node">
<title>/context</title>
<polygon fill="none" stroke="#000000" points="0,-146.5 0,-182.5 61.0967,-182.5 61.0967,-146.5 0,-146.5"/>
<text text-anchor="middle" x="30.5483" y="-160.3" font-family="Times,serif" font-size="14.00" fill="#000000">/context</text>
</g>
<!-- /error -->
<g id="node3" class="node">
<title>/error</title>
<polygon fill="none" stroke="#000000" points="21.5483,-73.5 21.5483,-109.5 75.5483,-109.5 75.5483,-73.5 21.5483,-73.5"/>
<text text-anchor="middle" x="48.0933" y="-87.3" font-family="Times,serif" font-size="14.00" fill="#000000">/error</text>
</g>
<!-- /context&#45;&gt;/error -->
<g id="edge1" class="edge">
<title>/context&#45;&gt;/error</title>
<path fill="none" stroke="#000000" d="M34.9978,-146.4551C37.0098,-138.2951 39.4336,-128.4652 41.6717,-119.3887"/>
<polygon fill="#000000" stroke="#000000" points="45.0918,-120.1375 44.0877,-109.5904 38.2954,-118.4616 45.0918,-120.1375"/>
</g>
<!-- /index -->
<g id="node4" class="node">
<title>/index</title>
<polygon fill="none" stroke="#000000" points="129.5483,-219.5 129.5483,-255.5 183.5483,-255.5 183.5483,-219.5 129.5483,-219.5"/>
<text text-anchor="middle" x="156.5449" y="-233.3" font-family="Times,serif" font-size="14.00" fill="#000000">/index</text>
</g>
<!-- /index&#45;&gt;/context -->
<g id="edge2" class="edge">
<title>/index&#45;&gt;/context</title>
<path fill="none" stroke="#000000" d="M129.5182,-221.8397C112.2891,-211.8577 89.6624,-198.7486 70.393,-187.5846"/>
<polygon fill="#000000" stroke="#000000" points="71.9325,-184.4316 61.5252,-182.4469 68.4233,-190.4885 71.9325,-184.4316"/>
</g>
<!-- /index&#45;&gt;/error -->
<g id="edge3" class="edge">
<title>/index&#45;&gt;/error</title>
<path fill="none" stroke="#000000" d="M143.0884,-219.3042C124.2522,-193.8403 89.907,-147.4108 68.2072,-118.0759"/>
<polygon fill="#000000" stroke="#000000" points="70.9387,-115.8831 62.1779,-109.9251 65.3111,-120.0461 70.9387,-115.8831"/>
</g>
<!-- /metadata -->
<g id="node5" class="node">
<title>/metadata</title>
<polygon fill="none" stroke="#000000" points="101.3413,-73.5 101.3413,-109.5 171.7554,-109.5 171.7554,-73.5 101.3413,-73.5"/>
<text text-anchor="middle" x="136.5483" y="-87.3" font-family="Times,serif" font-size="14.00" fill="#000000">/metadata</text>
</g>
<!-- /index&#45;&gt;/metadata -->
<g id="edge4" class="edge">
<title>/index&#45;&gt;/metadata</title>
<path fill="none" stroke="#000000" d="M152.8842,-219.3878C150.8295,-208.8088 148.3295,-195.1838 146.5483,-183 143.4711,-161.9504 140.8901,-138.0497 139.1214,-119.9555"/>
<polygon fill="#000000" stroke="#000000" points="142.5845,-119.4012 138.1521,-109.7781 135.616,-120.0649 142.5845,-119.4012"/>
</g>
<!-- /module -->
<g id="node6" class="node">
<title>/module</title>
<polygon fill="none" stroke="#000000" points="155.6069,-146.5 155.6069,-182.5 217.4897,-182.5 217.4897,-146.5 155.6069,-146.5"/>
<text text-anchor="middle" x="186.5483" y="-160.3" font-family="Times,serif" font-size="14.00" fill="#000000">/module</text>
</g>
<!-- /index&#45;&gt;/module -->
<g id="edge5" class="edge">
<title>/index&#45;&gt;/module</title>
<path fill="none" stroke="#000000" d="M163.9641,-219.4551C167.3535,-211.2074 171.4441,-201.2536 175.2075,-192.0962"/>
<polygon fill="#000000" stroke="#000000" points="178.5501,-193.1702 179.1139,-182.5904 172.0755,-190.5094 178.5501,-193.1702"/>
</g>
<!-- /route -->
<g id="node7" class="node">
<title>/route</title>
<polygon fill="none" stroke="#000000" points="208.5483,-73.5 208.5483,-109.5 262.5483,-109.5 262.5483,-73.5 208.5483,-73.5"/>
<text text-anchor="middle" x="235.376" y="-87.3" font-family="Times,serif" font-size="14.00" fill="#000000">/route</text>
</g>
<!-- /index&#45;&gt;/route -->
<g id="edge6" class="edge">
<title>/index&#45;&gt;/route</title>
<path fill="none" stroke="#000000" d="M183.7053,-223.6329C198.9848,-214.3162 216.885,-200.5361 226.5483,-183 237.159,-163.7447 238.9573,-138.7225 238.3543,-119.7127"/>
<polygon fill="#000000" stroke="#000000" points="241.8405,-119.3657 237.7918,-109.575 234.8513,-119.7535 241.8405,-119.3657"/>
</g>
<!-- /util -->
<g id="node8" class="node">
<title>/util</title>
<polygon fill="none" stroke="#000000" points="273.5483,-146.5 273.5483,-182.5 327.5483,-182.5 327.5483,-146.5 273.5483,-146.5"/>
<text text-anchor="middle" x="300.3276" y="-160.3" font-family="Times,serif" font-size="14.00" fill="#000000">/util</text>
</g>
<!-- /index&#45;&gt;/util -->
<g id="edge7" class="edge">
<title>/index&#45;&gt;/util</title>
<path fill="none" stroke="#000000" d="M183.6642,-223.5385C186.6603,-222.0039 189.6679,-220.4669 192.5483,-219 216.4057,-206.8506 243.2829,-193.2872 264.2568,-182.7304"/>
<polygon fill="#000000" stroke="#000000" points="266.0857,-185.7284 273.4459,-178.1075 262.9397,-179.4751 266.0857,-185.7284"/>
</g>
<!-- /metadata&#45;&gt;/code -->
<g id="edge8" class="edge">
<title>/metadata&#45;&gt;/code</title>
<path fill="none" stroke="#000000" d="M136.5483,-73.4551C136.5483,-65.3828 136.5483,-55.6764 136.5483,-46.6817"/>
<polygon fill="#000000" stroke="#000000" points="140.0484,-46.5903 136.5483,-36.5904 133.0484,-46.5904 140.0484,-46.5903"/>
</g>
<!-- /module&#45;&gt;/metadata -->
<g id="edge9" class="edge">
<title>/module&#45;&gt;/metadata</title>
<path fill="none" stroke="#000000" d="M174.1888,-146.4551C168.2993,-137.8564 161.1397,-127.4034 154.6522,-117.9316"/>
<polygon fill="#000000" stroke="#000000" points="157.4775,-115.8628 148.939,-109.5904 151.7023,-119.8185 157.4775,-115.8628"/>
</g>
<!-- /module&#45;&gt;/route -->
<g id="edge10" class="edge">
<title>/module&#45;&gt;/route</title>
<path fill="none" stroke="#000000" d="M198.6607,-146.4551C204.4324,-137.8564 211.4488,-127.4034 217.8065,-117.9316"/>
<polygon fill="#000000" stroke="#000000" points="220.7383,-119.844 223.4055,-109.5904 214.9262,-115.9427 220.7383,-119.844"/>
</g>
<!-- /mocha&#45;specs -->
<g id="node9" class="node">
<title>/mocha&#45;specs</title>
<polygon fill="none" stroke="#000000" points="201.4517,-219.5 201.4517,-255.5 293.645,-255.5 293.645,-219.5 201.4517,-219.5"/>
<text text-anchor="middle" x="247.5483" y="-233.3" font-family="Times,serif" font-size="14.00" fill="#000000">/mocha&#45;specs</text>
</g>
<!-- /specs -->
<g id="node10" class="node">
<title>/specs</title>
<polygon fill="none" stroke="#000000" points="3.5483,-219.5 3.5483,-255.5 57.5483,-255.5 57.5483,-219.5 3.5483,-219.5"/>
<text text-anchor="middle" x="30.1553" y="-233.3" font-family="Times,serif" font-size="14.00" fill="#000000">/specs</text>
</g>
<!-- /specs&#45;&gt;/context -->
<g id="edge11" class="edge">
<title>/specs&#45;&gt;/context</title>
<path fill="none" stroke="#000000" d="M30.5483,-219.4551C30.5483,-211.3828 30.5483,-201.6764 30.5483,-192.6817"/>
<polygon fill="#000000" stroke="#000000" points="34.0484,-192.5903 30.5483,-182.5904 27.0484,-192.5904 34.0484,-192.5903"/>
</g>
<!-- /table -->
<g id="node11" class="node">
<title>/table</title>
<polygon fill="none" stroke="#000000" points="311.5483,-219.5 311.5483,-255.5 365.5483,-255.5 365.5483,-219.5 311.5483,-219.5"/>
<text text-anchor="middle" x="338.0967" y="-233.3" font-family="Times,serif" font-size="14.00" fill="#000000">/table</text>
</g>
</g>
</svg>
